<?xml version="1.0" encoding="UTF-8" standalone="no"?>
<!-- Created with Inkscape (http://www.inkscape.org/) -->

<svg
   width="117.82973mm"
   height="74.827797mm"
   viewBox="0 0 117.82973 74.827797"
   version="1.1"
   id="svg1"
   xml:space="preserve"
   inkscape:version="1.3.2 (091e20e, 2023-11-25, custom)"
   sodipodi:docname="thumbnail.svg"
   inkscape:export-filename="thumbnail.png"
   inkscape:export-xdpi="107.03201"
   inkscape:export-ydpi="107.03201"
   xmlns:inkscape="http://www.inkscape.org/namespaces/inkscape"
   xmlns:sodipodi="http://sodipodi.sourceforge.net/DTD/sodipodi-0.dtd"
   xmlns="http://www.w3.org/2000/svg"
   xmlns:svg="http://www.w3.org/2000/svg"><sodipodi:namedview
     id="namedview1"
     pagecolor="#ffffff"
     bordercolor="#000000"
     borderopacity="0.25"
     inkscape:showpageshadow="2"
     inkscape:pageopacity="0.0"
     inkscape:pagecheckerboard="0"
     inkscape:deskcolor="#d1d1d1"
     inkscape:document-units="mm"
     inkscape:zoom="1.3843855"
     inkscape:cx="147.3578"
     inkscape:cy="122.43699"
     inkscape:window-width="1920"
     inkscape:window-height="991"
     inkscape:window-x="-9"
     inkscape:window-y="-9"
     inkscape:window-maximized="1"
     inkscape:current-layer="layer1"
     inkscape:export-bgcolor="#ffffffff" /><defs
     id="defs1"><clipPath
       clipPathUnits="userSpaceOnUse"
       id="clipPath3"><rect
         style="fill:#000000;stroke-width:0.0999998"
         id="rect3"
         width="107.39144"
         height="31.608444"
         x="65.459419"
         y="146.20679"
         ry="2.7704117"
         rx="2.7704117" /></clipPath></defs><g
     inkscape:label="Layer 1"
     inkscape:groupmode="layer"
     id="layer1"
     transform="translate(-23.595559,-92.589763)"><text
       xml:space="preserve"
       style="font-size:26.6589px;line-height:1.15;font-family:'IBM Plex Sans';-inkscape-font-specification:'IBM Plex Sans';text-align:center;text-anchor:middle;fill:#000000;stroke-width:0.0999998"
       x="81.089684"
       y="119.16094"
       id="text1"><tspan
         sodipodi:role="line"
         id="tspan1"
         style="font-style:normal;font-variant:normal;font-weight:bold;font-stretch:normal;font-family:'Segoe UI';-inkscape-font-specification:'Segoe UI';fill:#000000;stroke-width:0.0999998"
         x="81.089684"
         y="119.16094">MDX UI</tspan></text><g
       style="fill:currentColor;stroke-width:0.186506"
       id="g4"
       transform="matrix(1.4186292,0,0,1.4186292,101.5441,130.30545)"><path
         d="M 3,2 C 2.44772,2 2,2.44772 2,3 v 14 c 0,0.5523 0.44772,1 1,1 h 3 v 3 c 0,0.5523 0.44772,1 1,1 h 14 c 0.5523,0 1,-0.4477 1,-1 V 7 C 22,6.44772 21.5523,6 21,6 H 18 V 3 C 18,2.44772 17.5523,2 17,2 Z m 15,9.5607 2,2 v 2.8786 l -2,-2 z M 18,9.43934 V 8 h 2 v 3.4393 z M 18,17 v -0.4393 l 2,2 V 20 h -1.4393 l -2,-2 H 17 c 0.5523,0 1,-0.4477 1,-1 z m -3.5607,1 2,2 h -2.8786 l -2,-2 z m -4.99996,0 1.99996,2 H 8 V 18 Z M 4,16 V 4 h 12 v 12 z"
         id="path1"
         style="stroke-width:0.186506" /></g><g
       style="fill:currentColor;stroke-width:0.186506"
       id="g5"
       transform="matrix(1.4186292,0,0,1.4186292,30.542496,130.30545)"><path
         d="M 11.246,15 H 4.75416 l -2,5 H 0.600098 L 7.0001,4 h 2 l 6.4,16 H 13.246 Z M 10.446,13 8.0001,6.88516 5.55416,13 Z M 21.0001,12.5351 V 12 h 2 v 8 h -2 v -0.5351 c -0.5883,0.3403 -1.2714,0.5351 -2,0.5351 -2.2091,0 -4,-1.7909 -4,-4 0,-2.2091 1.7909,-4 4,-4 0.7286,0 1.4117,0.1948 2,0.5351 z m -2,5.4649 c 1.1046,0 2,-0.8954 2,-2 0,-1.1046 -0.8954,-2 -2,-2 -1.1046,0 -2,0.8954 -2,2 0,1.1046 0.8954,2 2,2 z"
         id="path1-8"
         style="stroke-width:0.186506" /></g><g
       style="fill:currentColor;stroke-width:0.248459"
       id="g6"
       transform="matrix(1.064897,0,0,1.064897,69.94631,134.55041)"><path
         d="M 16.1716,10.9999 10.8076,5.63589 12.2218,4.22168 20,11.9999 12.2218,19.778 10.8076,18.3638 16.1716,12.9999 H 4 v -2 z"
         id="path1-9"
         style="stroke-width:0.248459" /></g></g></svg>
